<!DOCTYPE svg PUBLIC "-//W3C//DTD SVG 1.1//EN" "http://www.w3.org/Graphics/SVG/1.1/DTD/svg11.dtd">
<!-- Uploaded to: SVG Repo, www.svgrepo.com, Transformed by: SVG Repo Mixer Tools -->
<svg fill="#00B7B5" width="64px" height="64px" viewBox="-51.2 -51.2 614.40 614.40" xmlns="http://www.w3.org/2000/svg" transform="rotate(180)">
<g id="SVGRepo_bgCarrier" stroke-width="0" transform="translate(107.52000000000001,107.52000000000001), scale(0.58)">
<rect x="-51.2" y="-51.2" width="614.40" height="614.40" rx="307.2" fill="#ffffff" strokewidth="0"/>
</g>
<g id="SVGRepo_tracerCarrier" stroke-linecap="round" stroke-linejoin="round"/>
<g id="SVGRepo_iconCarrier">
<title>ionicons-v5-b</title>
<path d="M256,48C141.13,48,48,141.13,48,256s93.13,208,208,208,208-93.13,208-208S370.87,48,256,48Zm35.31,292.69a16,16,0,1,1-22.62,22.62l-96-96a16,16,0,0,1,0-22.62l96-96a16,16,0,0,1,22.62,22.62L206.63,256Z"/>
</g>
</svg>